<svg width="622" height="602" viewBox="0 0 622 602" fill="none" xmlns="http://www.w3.org/2000/svg">
<g style="mix-blend-mode:multiply" opacity="0.3">
<path d="M421.742 290.374C456.345 286.084 503.424 286.369 542.927 309.176C615.519 351.087 598.405 417.889 546.782 438.603C554.963 493.13 505.36 541.888 432.768 499.977C394.828 478.073 371.774 439.056 357.576 408.24L309.452 318.85C304.486 309.626 313.924 293.305 324.389 293.02L421.742 290.374Z" fill="#BDB2FF"/>
<path d="M376.806 390.639C397.823 418.461 421.115 459.376 421.115 504.99C421.115 588.812 354.706 607.391 310.956 573.042C267.824 607.39 200.797 588.812 200.797 504.99C200.797 461.181 223.059 421.707 242.648 394.004L296 307.632C301.506 298.719 320.359 298.731 325.838 307.652L376.806 390.639Z" fill="#BDB2FF"/>
<path d="M266.018 406.227C252.433 438.339 228.646 478.968 189.143 501.775C116.551 543.686 67.2561 495.464 75.1284 440.401C23.8162 420.222 6.39214 352.885 78.9836 310.974C116.924 289.07 162.24 288.612 196.026 291.725L297.502 294.743C307.974 295.055 317.39 311.389 312.404 320.594L266.018 406.227Z" fill="#BDB2FF"/>
<path d="M200.168 316.542C165.565 320.832 118.486 320.547 78.983 297.74C6.39151 255.829 23.5053 189.027 75.1278 168.313C66.9474 113.786 116.551 65.0278 189.142 106.939C227.082 128.843 250.136 167.86 264.334 198.676L312.458 288.066C317.424 297.29 307.986 313.611 297.521 313.896L200.168 316.542Z" fill="#BDB2FF"/>
<path d="M245.106 211.27C224.088 183.448 200.796 142.533 200.796 96.9188C200.796 13.0974 267.205 -5.4825 310.955 28.8668C354.087 -5.48127 421.114 13.0974 421.114 96.9188C421.114 140.728 398.852 180.202 379.263 207.905L325.911 294.277C320.405 303.19 301.552 303.178 296.073 294.257L245.106 211.27Z" fill="#BDB2FF"/>
<path d="M355.892 200.69C369.478 168.577 393.265 127.948 432.768 105.141C505.359 63.2302 554.655 111.452 546.782 166.515C598.094 186.695 615.519 254.031 542.927 295.942C504.987 317.847 459.671 318.304 425.884 315.191L324.408 312.173C313.936 311.861 304.521 295.528 309.507 286.323L355.892 200.69Z" fill="#BDB2FF"/>
<g style="mix-blend-mode:multiply">
<path d="M295.426 186.743C297.456 168.179 324.454 168.179 326.484 186.743V186.743C328.032 200.91 346.187 205.775 354.612 194.28V194.28C365.652 179.218 389.033 192.717 381.509 209.809V209.809C375.767 222.852 389.057 236.143 402.1 230.401V230.401C419.192 222.876 432.692 246.257 417.629 257.297V257.297C406.134 265.722 410.999 283.877 425.166 285.426V285.426C443.731 287.455 443.731 314.454 425.166 316.483V316.483C410.999 318.032 406.134 336.187 417.629 344.611V344.611C432.692 355.652 419.192 379.033 402.1 371.508V371.508C389.057 365.766 375.767 379.056 381.509 392.099V392.099C389.033 409.192 365.652 422.691 354.612 407.628V407.628C346.187 396.134 328.032 400.999 326.484 415.165V415.165C324.454 433.73 297.456 433.73 295.426 415.165V415.165C293.877 400.999 275.722 396.134 267.298 407.628V407.628C256.258 422.691 232.876 409.192 240.401 392.099V392.099C246.143 379.056 232.853 365.766 219.81 371.508V371.508C202.717 379.033 189.218 355.652 204.281 344.611V344.611C215.775 336.187 210.911 318.032 196.744 316.483V316.483C178.179 314.454 178.179 287.455 196.744 285.426V285.426C210.911 283.877 215.775 265.722 204.281 257.297V257.297C189.218 246.257 202.717 222.876 219.81 230.401V230.401C232.853 236.143 246.143 222.852 240.401 209.809V209.809C232.876 192.717 256.258 179.218 267.298 194.28V194.28C275.722 205.775 293.877 200.91 295.426 186.743V186.743Z" fill="#BDB2FF"/>
</g>
<g style="mix-blend-mode:multiply">
<path fill-rule="evenodd" clip-rule="evenodd" d="M291.18 186.28C293.765 162.639 328.145 162.639 330.729 186.28C331.854 196.573 345.046 200.108 351.167 191.756C365.226 172.575 394.999 189.765 385.417 211.53C381.245 221.008 390.902 230.664 400.379 226.492C422.144 216.91 439.334 246.684 420.153 260.742C411.802 266.864 415.336 280.055 425.63 281.18C449.27 283.765 449.27 318.145 425.63 320.729C415.336 321.854 411.802 335.046 420.153 341.167C439.334 355.226 422.144 384.999 400.379 375.417C390.902 371.245 381.245 380.902 385.417 390.379C394.999 412.144 365.226 429.334 351.167 410.153C345.046 401.802 331.854 405.336 330.729 415.63C328.145 439.27 293.765 439.27 291.18 415.63C290.055 405.336 276.864 401.802 270.742 410.153C256.684 429.334 226.91 412.144 236.492 390.379C240.664 380.902 231.008 371.245 221.53 375.417C199.765 384.999 182.575 355.226 201.756 341.167C210.108 335.046 206.573 321.854 196.28 320.729C172.639 318.145 172.639 283.765 196.28 281.18C206.573 280.055 210.108 266.864 201.756 260.742C182.575 246.684 199.765 216.91 221.53 226.492C231.008 230.664 240.664 221.008 236.492 211.53C226.91 189.765 256.684 172.575 270.742 191.756C276.864 200.108 290.055 196.573 291.18 186.28ZM322.238 187.208C320.763 173.719 301.146 173.719 299.671 187.208C297.699 205.248 274.581 211.442 263.853 196.806C255.831 185.861 238.842 195.669 244.31 208.089C251.622 224.698 234.698 241.622 218.089 234.31C205.669 228.842 195.861 245.831 206.806 253.853C221.442 264.581 215.248 287.699 197.208 289.671C183.719 291.146 183.719 310.763 197.208 312.238C215.248 314.21 221.442 337.329 206.806 348.056C195.861 356.078 205.669 373.067 218.089 367.6C234.698 360.288 251.622 377.212 244.31 393.821C238.842 406.24 255.831 416.048 263.853 405.104C274.581 390.467 297.699 396.662 299.671 414.701C301.146 428.191 320.763 428.191 322.238 414.701C324.21 396.662 347.329 390.467 358.056 405.104C366.078 416.048 383.067 406.24 377.6 393.821C370.288 377.212 387.212 360.288 403.821 367.6C416.24 373.067 426.048 356.078 415.104 348.056C400.467 337.329 406.662 314.21 424.701 312.238C438.191 310.763 438.191 291.146 424.701 289.671C406.662 287.699 400.467 264.581 415.104 253.853C426.048 245.831 416.24 228.842 403.821 234.31C387.212 241.622 370.288 224.698 377.6 208.089C383.067 195.669 366.078 185.861 358.056 196.806C347.329 211.442 324.21 205.248 322.238 187.208Z" fill="#BDB2FF"/>
</g>
</g>
</svg>
